<?xml version="1.0" standalone="no"?>
<!DOCTYPE svg PUBLIC "-//W3C//DTD SVG 20010904//EN"
 "http://www.w3.org/TR/2001/REC-SVG-20010904/DTD/svg10.dtd">
<svg version="1.0" xmlns="http://www.w3.org/2000/svg"
 width="468.000000pt" height="468.000000pt" viewBox="0 0 468.000000 468.000000"
 preserveAspectRatio="xMidYMid meet">
<metadata>
Created by potrace 1.14, written by Peter Selinger 2001-2017
</metadata>
<g transform="translate(0.000000,468.000000) scale(0.100000,-0.100000)"
fill="#000000" stroke="none">
<path d="M1476 2925 c-473 -470 -857 -857 -855 -859 6 -6 75 46 337 254 87 69
175 139 196 155 21 17 132 104 246 195 115 91 274 217 355 280 80 63 158 125
173 137 238 192 409 323 419 321 11 -3 115 -83 407 -316 147 -117 621 -492
695 -551 51 -40 229 -185 292 -239 30 -26 73 -60 94 -77 21 -16 74 -58 118
-93 44 -34 82 -60 85 -57 2 2 -116 128 -264 280 l-269 276 -5 262 -5 262 -167
3 -168 2 0 -85 c0 -47 -3 -85 -8 -85 -4 0 -185 178 -402 395 -217 217 -400
395 -405 395 -6 0 -397 -385 -869 -855z"/>
<path d="M751 1783 c-61 -22 -126 -87 -141 -142 -16 -62 -14 -171 6 -219 40
-102 159 -146 286 -108 114 34 173 127 166 266 -4 100 -28 145 -98 188 -46 27
-63 32 -115 31 -33 0 -80 -8 -104 -16z m149 -42 c83 -44 114 -210 59 -316 -65
-125 -189 -127 -251 -4 -54 107 -27 251 60 313 43 31 84 33 132 7z"/>
<path d="M2500 1782 c-58 -22 -126 -92 -141 -144 -15 -56 -13 -170 4 -210 45
-109 160 -153 294 -113 110 33 168 126 162 262 -5 103 -28 147 -99 191 -46 27
-63 32 -115 31 -33 0 -80 -8 -105 -17z m144 -36 c23 -9 44 -31 62 -63 25 -42
29 -58 29 -128 0 -66 -5 -89 -25 -130 -33 -66 -81 -98 -137 -92 -60 6 -96 37
-121 102 -39 101 -23 203 42 274 49 52 89 62 150 37z"/>
<path d="M3890 1774 c-69 -31 -95 -56 -127 -119 -50 -97 -29 -229 45 -293 64
-54 182 -75 292 -52 54 11 60 15 60 37 0 20 -4 24 -17 18 -104 -44 -172 -44
-237 2 -58 42 -81 92 -80 183 0 82 13 118 61 161 56 53 110 62 188 33 22 -8
44 -16 48 -17 5 -1 13 8 18 21 8 20 5 25 -26 38 -55 23 -160 17 -225 -12z"/>
<path d="M160 1550 l0 -240 35 0 35 0 0 115 0 115 105 0 105 0 0 -115 0 -115
40 0 40 0 0 241 0 240 -37 -3 -38 -3 -3 -102 -3 -103 -104 0 -105 0 0 105 0
105 -35 0 -35 0 0 -240z"/>
<path d="M1177 1743 c-4 -27 -9 -135 -13 -240 -7 -189 -7 -193 13 -193 19 0
21 9 29 188 l9 187 58 -130 c100 -222 112 -245 123 -245 7 0 22 26 34 58 13
31 27 62 32 68 4 6 14 28 22 50 8 21 31 75 52 119 33 72 38 77 45 55 4 -14 7
-68 8 -120 1 -52 4 -125 8 -162 l6 -68 40 0 40 0 -6 93 c-4 50 -9 148 -12 217
-8 173 -8 170 -53 170 l-38 0 -44 -97 c-23 -54 -56 -126 -71 -161 -16 -34 -29
-67 -29 -72 0 -22 -19 -8 -35 28 -9 20 -29 64 -44 97 -97 213 -92 205 -132
205 -36 0 -37 -1 -42 -47z"/>
<path d="M1800 1550 l0 -240 144 0 c137 0 144 1 149 21 8 29 -11 33 -113 23
-49 -5 -94 -8 -99 -6 -7 2 -11 40 -11 98 l0 94 80 0 c73 0 80 2 80 20 0 18 -7
20 -80 20 l-80 0 0 80 c0 101 8 106 158 86 l62 -8 0 26 0 26 -145 0 -145 0 0
-240z"/>
<path d="M2910 1550 l0 -240 40 0 40 0 0 115 0 115 75 0 c68 0 75 2 75 20 0
18 -7 20 -75 20 l-75 0 0 84 0 84 33 6 c18 3 57 2 86 -4 81 -15 91 -14 91 15
l0 25 -145 0 -145 0 0 -240z"/>
<path d="M3250 1550 l0 -240 40 0 40 0 0 115 0 115 74 0 c54 0 75 4 79 14 9
22 -2 26 -80 26 l-73 0 0 80 c0 101 10 106 153 87 57 -8 57 -8 57 17 l0 26
-145 0 -145 0 0 -240z"/>
<path d="M3600 1550 l0 -240 35 0 35 0 0 240 0 240 -35 0 -35 0 0 -240z"/>
<path d="M4230 1550 l0 -240 150 0 150 0 0 26 0 27 -87 -7 c-49 -4 -97 -8
-108 -9 -19 -2 -20 5 -23 96 l-3 97 81 0 c73 0 80 2 80 20 0 18 -7 20 -80 20
l-80 0 0 84 0 83 35 6 c20 3 61 2 93 -4 86 -14 92 -12 92 16 l0 25 -150 0
-150 0 0 -240z"/>
<path d="M60 870 c0 -81 16 -112 22 -42 3 32 6 37 28 37 21 0 26 -6 30 -33 9
-59 25 -34 25 40 0 48 -4 73 -12 76 -9 2 -13 -8 -13 -33 0 -34 -2 -36 -27 -33
-23 2 -29 8 -31 36 -6 64 -22 30 -22 -48z"/>
<path d="M220 876 c0 -75 16 -114 22 -54 4 42 19 42 37 1 8 -18 18 -33 23 -33
12 0 10 34 -4 48 -10 10 -10 17 0 32 28 45 8 80 -45 80 l-33 0 0 -74z m64 38
c8 -21 -1 -34 -25 -34 -14 0 -19 7 -19 25 0 29 34 36 44 9z"/>
<path d="M475 940 c-14 -23 -42 -141 -34 -145 4 -3 10 4 14 15 8 27 51 27 65
0 6 -11 15 -18 19 -15 10 6 -39 155 -50 155 -4 0 -11 -5 -14 -10z m25 -70 c0
-19 -11 -26 -23 -14 -8 8 3 34 14 34 5 0 9 -9 9 -20z"/>
<path d="M600 869 c0 -51 4 -78 10 -74 6 3 10 35 10 71 l0 64 31 0 c17 0 28 4
24 10 -3 6 -22 10 -41 10 l-34 0 0 -81z"/>
<path d="M730 870 l0 -80 40 0 c45 0 55 17 13 22 -38 4 -40 49 -3 59 l25 6
-25 4 c-17 3 -26 11 -28 27 -3 19 1 22 27 22 17 0 31 5 31 10 0 6 -18 10 -40
10 l-40 0 0 -80z"/>
<path d="M864 937 c-9 -23 0 -142 11 -142 6 0 11 17 13 38 3 31 7 37 27 37 20
0 24 -6 27 -37 5 -66 23 -36 23 39 0 48 -4 73 -12 76 -9 2 -13 -8 -13 -32 0
-32 -3 -36 -25 -36 -21 0 -25 5 -25 29 0 33 -17 51 -26 28z"/>
<path d="M1041 941 c-22 -14 -26 -96 -7 -126 21 -31 61 -33 76 -4 16 29 4 36
-21 13 -20 -18 -21 -18 -35 1 -15 20 -17 46 -8 83 8 26 39 29 53 5 5 -10 13
-14 17 -10 25 24 -43 59 -75 38z"/>
<path d="M1165 941 c-3 -5 5 -11 17 -13 21 -3 23 -9 26 -71 4 -86 22 -79 22 9
0 57 2 64 20 64 11 0 20 5 20 10 0 13 -97 13 -105 1z"/>
<path d="M1320 870 l0 -80 28 0 c38 0 66 31 56 62 -4 13 -6 36 -5 52 3 33 -12
46 -51 46 l-28 0 0 -80z m60 40 c0 -13 -7 -20 -20 -20 -13 0 -20 7 -20 20 0
13 7 20 20 20 13 0 20 -7 20 -20z m-2 -67 c4 -24 -26 -40 -34 -18 -8 21 3 47
19 43 6 -3 13 -14 15 -25z"/>
<path d="M1466 928 c-34 -48 -8 -138 40 -138 30 0 54 35 54 80 0 45 -24 80
-55 80 -13 0 -31 -10 -39 -22z m68 -14 c3 -9 6 -31 6 -49 0 -39 -28 -63 -48
-43 -13 13 -16 90 -5 101 12 13 41 7 47 -9z"/>
<path d="M1690 947 c0 -2 9 -30 20 -62 15 -44 17 -61 9 -72 -16 -19 -2 -30 16
-12 11 12 55 126 55 145 0 18 -25 -7 -36 -37 l-12 -34 -16 38 c-9 20 -21 37
-26 37 -6 0 -10 -2 -10 -3z"/>
<path d="M1867 944 c-4 -4 -7 -28 -7 -54 0 -25 -7 -55 -15 -66 -19 -25 -19
-64 0 -64 8 0 15 7 15 15 0 11 11 15 40 15 29 0 40 -4 40 -15 0 -8 7 -15 15
-15 9 0 15 9 15 25 0 14 -4 25 -10 25 -5 0 -10 30 -12 68 l-3 67 -35 3 c-20 2
-39 0 -43 -4z m53 -75 c0 -55 -2 -60 -20 -57 -12 2 -21 6 -20 11 0 4 0 30 0
57 0 43 3 50 20 50 18 0 20 -7 20 -61z"/>
<path d="M2045 938 c-9 -26 -35 -123 -36 -133 0 -5 4 -11 10 -13 6 -2 11 6 11
17 0 30 55 30 63 0 3 -12 10 -18 15 -15 6 3 1 35 -12 78 -21 69 -41 95 -51 66z
m28 -58 c5 -21 -7 -35 -22 -26 -10 7 -3 46 9 46 4 0 10 -9 13 -20z"/>
<path d="M2180 903 c0 -27 -7 -60 -14 -75 -8 -15 -11 -30 -6 -33 17 -10 40 40
40 87 0 41 3 48 20 48 18 0 20 -7 20 -70 0 -40 4 -70 10 -70 6 0 10 33 10 80
l0 80 -40 0 -40 0 0 -47z"/>
<path d="M2324 936 c-3 -7 -4 -42 -2 -77 l3 -64 43 -3 c46 -3 59 15 15 20 -22
2 -29 9 -31 30 -3 22 1 27 25 31 l28 4 -27 2 c-23 1 -28 6 -28 26 0 21 5 25
30 25 17 0 30 5 30 10 0 16 -80 12 -86 -4z"/>
<path d="M2460 870 c0 -81 16 -112 22 -42 3 32 6 37 28 37 21 0 26 -6 30 -33
9 -59 25 -34 25 40 0 48 -4 73 -12 76 -9 2 -13 -8 -13 -33 0 -34 -2 -36 -27
-33 -23 2 -29 8 -31 36 -6 64 -22 30 -22 -48z"/>
<path d="M2620 870 c0 -81 16 -112 22 -42 3 32 6 37 28 37 21 0 26 -6 30 -33
9 -59 25 -34 25 40 0 46 -4 73 -12 75 -7 3 -13 -9 -15 -29 -2 -28 -7 -33 -28
-33 -21 0 -26 5 -28 33 -6 64 -22 30 -22 -48z"/>
<path d="M2801 936 c-18 -21 -24 -77 -12 -108 15 -39 58 -48 83 -18 22 27 24
88 2 118 -17 25 -56 29 -73 8z m57 -60 c3 -50 -8 -69 -34 -59 -19 7 -28 67
-14 93 20 38 45 21 48 -34z"/>
<path d="M2940 876 c0 -41 5 -78 10 -81 6 -4 10 20 10 64 l0 71 30 0 c17 0 30
5 30 10 0 6 -18 10 -40 10 l-40 0 0 -74z"/>
<path d="M3086 934 c-24 -23 -21 -106 4 -129 26 -24 68 -13 81 23 12 31 6 87
-12 108 -15 19 -54 18 -73 -2z m62 -55 c4 -55 -16 -80 -42 -54 -30 30 -13 110
22 103 12 -2 18 -16 20 -49z"/>
<path d="M3314 936 c-9 -23 0 -141 11 -141 6 0 11 30 13 68 3 64 4 67 27 67
24 0 25 -3 25 -64 0 -36 5 -68 10 -71 6 -4 10 23 10 74 l0 81 -45 0 c-29 0
-48 -5 -51 -14z"/>
<path d="M3472 873 l3 -78 34 -3 c18 -2 38 1 44 7 8 8 2 11 -21 11 -29 0 -32
3 -32 29 0 25 5 30 28 34 l27 4 -27 2 c-23 1 -28 6 -28 26 0 21 5 25 30 25 17
0 30 5 30 10 0 6 -20 10 -45 10 l-46 0 3 -77z"/>
<path d="M3610 869 c0 -51 4 -78 10 -74 6 3 10 17 10 29 0 18 7 25 30 30 30 5
35 17 31 61 -2 24 -18 35 -53 35 l-28 0 0 -81z m64 44 c5 -11 1 -22 -10 -30
-22 -16 -34 -8 -34 23 0 29 34 34 44 7z"/>
<path d="M3755 936 c-27 -19 -26 -100 2 -128 24 -24 67 -19 77 8 9 25 0 28
-25 10 -28 -19 -49 -5 -49 33 0 66 27 92 56 54 17 -24 29 -10 14 16 -12 24
-47 27 -75 7z"/>
<path d="M3906 934 c-24 -23 -21 -106 4 -129 26 -24 68 -13 81 23 12 31 6 87
-12 108 -15 19 -54 18 -73 -2z m62 -55 c4 -55 -16 -80 -42 -54 -30 30 -13 110
22 103 12 -2 18 -16 20 -49z"/>
<path d="M4050 870 c0 -81 16 -112 22 -42 3 32 7 37 30 40 24 3 27 0 30 -35 5
-66 23 -37 26 43 2 59 0 75 -10 72 -7 -3 -14 -19 -16 -37 -3 -28 -6 -32 -30
-29 -22 2 -28 9 -30 36 -6 64 -22 30 -22 -48z"/>
<path d="M4241 923 c-23 -57 -39 -123 -31 -128 5 -3 11 4 15 15 8 27 51 27 65
0 15 -29 30 -15 20 18 -22 71 -43 122 -50 122 -4 0 -13 -12 -19 -27z m29 -53
c0 -11 -4 -20 -10 -20 -5 0 -10 9 -10 20 0 11 5 20 10 20 6 0 10 -9 10 -20z"/>
<path d="M4380 891 c0 -33 -4 -63 -10 -66 -5 -3 -10 -13 -10 -22 0 -14 2 -14
20 2 13 12 20 33 22 69 2 38 7 52 20 54 14 3 18 -7 20 -62 4 -90 22 -84 26 9
l3 75 -46 0 -45 0 0 -59z"/>
<path d="M4556 938 c-36 -112 -42 -139 -34 -144 5 -3 12 3 15 15 4 15 13 21
33 21 20 0 29 -6 33 -21 3 -12 10 -18 15 -15 6 3 1 35 -12 78 -21 68 -41 95
-50 66z m27 -58 c5 -21 -7 -35 -22 -26 -10 7 -3 46 9 46 4 0 10 -9 13 -20z"/>
</g>
</svg>
