<svg width="100%" height="100%" viewBox="0 0 85 85" fill="none" xmlns="http://www.w3.org/2000/svg">
<rect width="85" height="85" rx="42.5" fill="white"/>
<path d="M42.6845 48.5756C39.1889 48.5756 35.7718 47.5391 32.8653 45.597C29.9589 43.655 27.6936 40.8947 26.3559 37.6652C25.0182 34.4357 24.6682 30.8821 25.3501 27.4537C26.0321 24.0253 27.7153 20.8761 30.1871 18.4043C32.6588 15.9326 35.808 14.2493 39.2364 13.5673C42.6648 12.8854 46.2185 13.2354 49.448 14.5731C52.6775 15.9108 55.4378 18.1761 57.3798 21.0826C59.3218 23.989 60.3584 27.4061 60.3584 30.9017C60.3584 35.5891 58.4963 40.0845 55.1818 43.399C51.8673 46.7136 47.3719 48.5756 42.6845 48.5756ZM42.6845 19.119C40.3541 19.119 38.076 19.8101 36.1384 21.1048C34.2007 22.3995 32.6905 24.2397 31.7987 26.3927C30.9069 28.5457 30.6736 30.9148 31.1282 33.2004C31.5829 35.486 32.705 37.5854 34.3529 39.2333C36.0007 40.8811 38.1002 42.0033 40.3858 42.4579C42.6714 42.9125 45.0405 42.6792 47.1935 41.7874C49.3465 40.8956 51.1867 39.3854 52.4814 37.4478C53.776 35.5101 54.4671 33.2321 54.4671 30.9017C54.4671 27.7767 53.2257 24.7798 51.016 22.5701C48.8064 20.3604 45.8094 19.119 42.6845 19.119Z" fill="black"/>
<path d="M69.1953 72.1409C68.414 72.1409 67.6648 71.8306 67.1124 71.2781C66.56 70.7257 66.2496 69.9765 66.2496 69.1952C66.2496 63.7266 64.0772 58.4819 60.2103 54.615C56.3434 50.7481 51.0987 48.5756 45.63 48.5756H39.7387C34.27 48.5756 29.0254 50.7481 25.1584 54.615C21.2915 58.4819 19.1191 63.7266 19.1191 69.1952C19.1191 69.9765 18.8088 70.7257 18.2563 71.2781C17.7039 71.8306 16.9547 72.1409 16.1734 72.1409C15.3922 72.1409 14.643 71.8306 14.0905 71.2781C13.5381 70.7257 13.2278 69.9765 13.2278 69.1952C13.2278 62.1641 16.0209 55.421 20.9927 50.4492C25.9644 45.4774 32.7076 42.6843 39.7387 42.6843H45.63C52.6612 42.6843 59.4043 45.4774 64.3761 50.4492C69.3478 55.421 72.1409 62.1641 72.1409 69.1952C72.1409 69.9765 71.8306 70.7257 71.2782 71.2781C70.7258 71.8306 69.9765 72.1409 69.1953 72.1409Z" fill="black"/>
<path d="M42.6843 72.1409C42.2967 72.1431 41.9124 72.0688 41.5535 71.9222C41.1946 71.7757 40.8682 71.5597 40.5929 71.2866L37.6473 68.341C37.3248 68.0164 37.0823 67.6211 36.9391 67.1865C36.796 66.7519 36.756 66.2899 36.8225 65.8372L39.7681 45.2176C39.7681 44.4363 40.0785 43.6871 40.6309 43.1347C41.1833 42.5823 41.9326 42.2719 42.7138 42.2719C43.495 42.2719 44.2443 42.5823 44.7967 43.1347C45.3491 43.6871 45.6595 44.4363 45.6595 45.2176L48.6051 65.8372C48.6716 66.2899 48.6316 66.7519 48.4884 67.1865C48.3453 67.6211 48.1028 68.0164 47.7803 68.341L44.8347 71.2866C44.5525 71.5668 44.2165 71.7869 43.8469 71.9337C43.4773 72.0806 43.0819 72.151 42.6843 72.1409Z" fill="black"/>
</svg>
